<?xml version="1.0" encoding="UTF-8"?>
<svg xmlns="http://www.w3.org/2000/svg" xmlns:xlink="http://www.w3.org/1999/xlink" width="48px" height="48px" viewBox="0 0 48 48" version="1.1">
<g id="surface1">
<path style=" stroke:none;fill-rule:nonzero;fill:rgb(0%,0%,0%);fill-opacity:1;" d="M 24 0 C 10.765625 0 0 10.765625 0 24 C 0 37.234375 10.765625 48 24 48 C 37.234375 48 48 37.234375 48 24 C 48 10.765625 37.234375 0 24 0 Z M 24 43.636719 C 13.171875 43.636719 4.363281 34.828125 4.363281 24 C 4.363281 13.171875 13.171875 4.363281 24 4.363281 C 34.828125 4.363281 43.636719 13.171875 43.636719 24 C 43.636719 34.828125 34.828125 43.636719 24 43.636719 Z M 24 43.636719 "/>
<path style=" stroke:none;fill-rule:nonzero;fill:rgb(0%,0%,0%);fill-opacity:1;" d="M 29.816406 13.089844 C 28.613281 13.089844 27.636719 14.066406 27.636719 15.273438 L 27.636719 32.726562 C 27.636719 33.933594 28.613281 34.910156 29.816406 34.910156 C 31.023438 34.910156 32 33.933594 32 32.726562 L 32 15.273438 C 32 14.066406 31.023438 13.089844 29.816406 13.089844 Z M 29.816406 13.089844 "/>
<path style=" stroke:none;fill-rule:nonzero;fill:rgb(0%,0%,0%);fill-opacity:1;" d="M 18.183594 13.089844 C 16.976562 13.089844 16 14.066406 16 15.273438 L 16 32.726562 C 16 33.933594 16.976562 34.910156 18.183594 34.910156 C 19.386719 34.910156 20.363281 33.933594 20.363281 32.726562 L 20.363281 15.273438 C 20.363281 14.066406 19.386719 13.089844 18.183594 13.089844 Z M 18.183594 13.089844 "/>
</g>
</svg>
