<?xml version="1.0" encoding="UTF-8"?>
<svg xmlns="http://www.w3.org/2000/svg" xmlns:xlink="http://www.w3.org/1999/xlink" width="48px" height="48px" viewBox="0 0 48 48" version="1.1">
<g id="surface1">
<path style=" stroke:none;fill-rule:nonzero;fill:rgb(0%,0%,0%);fill-opacity:1;" d="M 36.449219 23.339844 L 18.851562 11.339844 C 18.605469 11.171875 18.289062 11.15625 18.027344 11.292969 C 17.765625 11.429688 17.601562 11.703125 17.601562 12 L 17.601562 36 C 17.601562 36.296875 17.765625 36.570312 18.027344 36.707031 C 18.144531 36.769531 18.273438 36.800781 18.398438 36.800781 C 18.558594 36.800781 18.714844 36.753906 18.851562 36.660156 L 36.449219 24.660156 C 36.667969 24.511719 36.800781 24.265625 36.800781 24 C 36.800781 23.734375 36.667969 23.488281 36.449219 23.339844 Z M 19.199219 34.484375 L 19.199219 13.515625 L 34.578125 24 Z M 19.199219 34.484375 "/>
<path style=" stroke:none;fill-rule:nonzero;fill:rgb(0%,0%,0%);fill-opacity:1;" d="M 24 0 C 10.765625 0 0 10.765625 0 24 C 0 37.234375 10.765625 48 24 48 C 37.234375 48 48 37.234375 48 24 C 48 10.765625 37.234375 0 24 0 Z M 24 46.398438 C 11.648438 46.398438 1.601562 36.351562 1.601562 24 C 1.601562 11.648438 11.648438 1.601562 24 1.601562 C 36.351562 1.601562 46.398438 11.648438 46.398438 24 C 46.398438 36.351562 36.351562 46.398438 24 46.398438 Z M 24 46.398438 "/>
</g>
</svg>
